# xmcd CD database file
#
# Track frame offsets:
#	150
#	18173
#	35251
#
# Disc length: 638 seconds
#
# Revision: 2
# Processed by: cddbd v1.5.2PL0 Copyright (c) Steve Scherf et al.
# Submitted via: CDex 1.70beta2
#
DISCID=15027c03
DTITLE=柴咲コウ - EUPHORIA
DYEAR=2010
DGENRE=J-Pop
TTITLE0=EUPHORIA
TTITLE1=U
TTITLE2=となり
EXTD=YEAR: 2010
EXTT0=
EXTT1=
EXTT2=
PLAYORDER=
